<?xml version="1.0" standalone="no"?>
<!DOCTYPE svg PUBLIC "-//W3C//DTD SVG 20010904//EN"
 "http://www.w3.org/TR/2001/REC-SVG-20010904/DTD/svg10.dtd">
<svg version="1.0" xmlns="http://www.w3.org/2000/svg"
 width="718.000000pt" height="718.000000pt" viewBox="0 0 718.000000 718.000000"
 preserveAspectRatio="xMidYMid meet">
<metadata>
Created by potrace 1.14, written by Peter Selinger 2001-2017
</metadata>
<g transform="translate(0.000000,718.000000) scale(0.100000,-0.100000)"
fill="#000000" stroke="none">
<path d="M3810 6911 c-29 -16 -105 -29 -139 -24 -28 5 -33 3 -28 -9 4 -13 -9
-17 -76 -22 -276 -24 -483 -62 -519 -98 -9 -9 -30 -20 -45 -24 -16 -3 -46 -12
-68 -19 -96 -32 -182 -55 -202 -55 -24 0 -40 -16 -22 -22 17 -6 -1 -36 -34
-58 -18 -11 -47 -31 -66 -45 -19 -14 -46 -28 -60 -32 -27 -6 -110 -52 -196
-109 -28 -18 -86 -45 -130 -59 -44 -14 -97 -37 -117 -51 -21 -13 -42 -24 -47
-24 -14 0 -53 -58 -47 -69 4 -5 0 -12 -6 -14 -7 -3 3 -6 21 -6 41 -1 35 -9
-29 -43 -64 -34 -160 -97 -160 -104 0 -4 8 -12 17 -19 16 -12 16 -14 0 -38 -9
-14 -37 -36 -63 -49 -51 -25 -104 -69 -104 -87 0 -6 12 -11 27 -11 l26 0 -23
-25 -23 -24 33 9 c36 10 54 3 30 -11 -8 -5 -51 -31 -95 -57 -45 -27 -81 -56
-83 -66 -3 -15 0 -17 14 -11 38 15 54 17 54 6 0 -6 -8 -20 -17 -30 -10 -11
-23 -26 -29 -33 -6 -7 -37 -35 -68 -61 -50 -43 -55 -51 -45 -69 8 -15 8 -19 0
-14 -6 4 -11 2 -11 -5 0 -7 11 -9 34 -5 20 4 36 2 38 -4 2 -7 14 -7 35 -1 19
6 35 6 38 1 3 -5 12 -7 20 -4 8 3 29 -1 46 -10 19 -10 36 -12 43 -7 9 8 28 8
71 2 6 -1 -5 -13 -23 -27 -33 -26 -34 -44 -4 -44 9 0 23 -4 31 -9 12 -8 12
-12 2 -24 -14 -17 -6 -64 16 -89 10 -11 12 -24 7 -40 -9 -28 -5 -89 7 -104 5
-6 6 -25 3 -43 -5 -21 -3 -31 6 -31 8 0 10 -8 6 -24 -3 -14 -2 -27 3 -30 5 -3
12 -29 16 -56 4 -28 10 -50 14 -50 4 0 9 -20 9 -45 1 -24 7 -56 12 -71 10 -25
27 -196 35 -353 2 -41 9 -79 14 -84 6 -6 11 -27 11 -46 0 -20 4 -42 9 -49 7
-12 15 25 25 113 1 11 5 45 9 75 4 30 9 101 12 158 3 70 9 109 20 124 18 26
20 52 4 42 -9 -5 -10 1 -5 22 4 16 8 36 10 46 1 9 8 23 15 31 7 9 14 26 15 39
2 13 6 30 9 38 2 8 13 50 23 94 10 43 24 81 31 83 7 3 13 14 13 25 0 26 94
118 121 118 11 0 22 7 25 15 3 7 27 22 52 32 26 9 69 30 95 45 58 34 149 69
197 75 19 3 40 10 47 15 7 5 44 8 82 7 42 -2 75 1 81 7 7 7 26 8 53 4 23 -5
83 -7 132 -6 60 1 100 -3 118 -12 25 -12 33 -11 64 3 32 15 40 16 96 2 51 -13
62 -14 74 -1 10 9 29 12 61 9 26 -3 84 0 129 7 77 10 83 10 108 -10 22 -18 41
-21 118 -22 126 -1 193 -7 219 -21 12 -6 49 -12 82 -13 34 -1 67 -5 74 -9 6
-5 17 -5 22 -2 6 3 10 1 10 -4 0 -6 11 -11 25 -11 25 0 73 -25 87 -45 9 -12
118 -17 118 -4 0 5 8 9 18 9 14 0 15 -2 2 -10 -13 -9 -13 -11 0 -20 8 -5 25
-10 38 -10 18 0 22 4 17 19 -6 21 13 40 24 24 3 -5 14 -12 24 -16 15 -6 17 -3
12 13 -6 18 -3 19 27 14 18 -4 38 -13 44 -20 6 -8 19 -14 28 -14 9 0 16 -8 16
-18 0 -11 11 -24 25 -30 14 -6 25 -7 25 -2 0 13 46 6 65 -10 13 -11 23 -11 46
-3 22 8 29 8 30 0 11 -127 13 -134 33 -118 8 7 17 22 20 35 6 23 36 45 36 26
0 -6 -4 -10 -9 -10 -5 0 -11 -18 -15 -41 -4 -25 -17 -50 -33 -65 -27 -25 -26
-47 2 -24 13 11 15 8 15 -15 0 -16 -8 -37 -17 -47 -13 -14 -14 -21 -5 -30 20
-20 14 -48 -12 -58 -13 -5 -27 -19 -30 -32 -21 -75 -32 -102 -53 -124 -19 -21
-21 -29 -12 -40 10 -12 8 -18 -10 -31 -17 -11 -21 -21 -16 -40 4 -17 1 -29
-11 -37 -15 -11 -14 -14 9 -33 27 -21 52 -83 27 -68 -9 6 -10 3 -1 -14 7 -11
16 -21 21 -21 6 0 10 -9 10 -20 0 -22 36 -79 58 -93 6 -4 12 -12 12 -17 0 -20
44 -60 66 -60 12 0 30 -7 38 -16 9 -8 22 -14 28 -12 7 3 21 -3 31 -13 11 -10
26 -15 34 -12 9 4 14 0 13 -8 -4 -29 1 -46 19 -65 19 -21 28 -64 35 -162 2
-29 6 -56 10 -59 3 -3 1 -14 -5 -24 -8 -15 -6 -19 6 -19 9 0 15 -6 13 -12 -7
-20 -108 -28 -405 -33 -228 -3 -273 -2 -273 10 0 8 13 15 33 17 29 3 32 6 29
32 -4 37 -34 95 -60 119 -20 18 -21 18 -32 -2 -8 -16 -7 -32 5 -66 19 -56 20
-107 2 -60 -52 130 -114 195 -222 230 -13 4 -16 8 -8 13 15 9 -102 46 -121 39
-7 -3 -18 -2 -25 3 -8 4 5 12 33 19 57 14 60 36 7 51 -31 8 -38 14 -34 29 3
12 -5 25 -24 38 -25 18 -41 20 -150 17 -68 -1 -128 -6 -134 -10 -6 -4 -32 -8
-58 -9 -25 -1 -65 -11 -89 -23 -23 -11 -44 -16 -48 -11 -11 18 -43 8 -64 -21
-12 -16 -24 -29 -28 -27 -4 1 -9 -2 -12 -8 -3 -6 26 -11 75 -13 240 -10 224
-18 -51 -25 -155 -4 -296 -4 -313 -1 -20 4 -31 3 -31 -5 0 -7 35 -11 108 -12
120 -1 197 -16 102 -19 -30 -1 -66 -1 -80 -1 -18 1 -42 -14 -82 -52 -48 -46
-61 -53 -87 -49 -24 3 -31 1 -31 -12 0 -22 -42 -38 -55 -22 -6 7 -20 16 -32
20 -12 4 -25 16 -28 26 -3 10 -15 22 -25 25 -11 3 -17 12 -14 20 3 7 1 16 -5
20 -6 3 -11 2 -11 -2 0 -5 -18 -7 -41 -5 -30 3 -39 8 -35 18 3 8 -1 17 -9 20
-43 17 1 24 148 26 156 1 153 1 -83 9 -135 4 -324 13 -420 19 -200 13 -489 5
-630 -16 -167 -25 -227 -71 -257 -196 -20 -78 -28 -90 -60 -82 -23 6 -24 4
-21 -27 3 -29 8 -35 33 -40 17 -3 29 -10 28 -16 -4 -19 17 -184 33 -268 49
-252 108 -363 229 -431 36 -19 65 -39 65 -43 0 -13 67 -40 127 -50 32 -5 105
-13 163 -17 145 -9 204 -35 148 -65 -13 -7 -28 -19 -34 -27 -6 -8 -16 -12 -22
-8 -7 4 -12 2 -12 -3 0 -6 -22 -22 -50 -36 -27 -14 -49 -31 -47 -38 1 -6 -7
-11 -17 -10 -20 1 -48 -20 -44 -34 5 -15 -44 -71 -57 -67 -18 7 -30 -15 -16
-29 15 -15 14 -38 -1 -34 -7 1 -14 -7 -14 -18 -1 -11 -2 -26 -3 -32 -1 -7 -8
-13 -16 -13 -8 0 -15 -7 -15 -15 0 -9 6 -12 15 -9 10 4 18 -3 25 -21 5 -14 15
-23 20 -20 18 11 24 -27 7 -40 -10 -7 -16 -23 -16 -36 1 -17 3 -19 6 -7 2 10
9 18 15 18 6 0 8 -18 4 -47 -3 -27 -3 -42 0 -35 3 6 13 12 21 12 13 0 14 -8 9
-41 -6 -37 -4 -44 21 -65 15 -13 28 -31 28 -40 0 -9 10 -20 23 -25 18 -7 22
-5 22 10 0 22 30 51 53 51 9 0 16 3 15 8 -1 4 6 20 17 36 13 20 16 31 8 33 -7
3 -9 11 -6 19 8 21 23 17 23 -6 0 -11 7 -23 15 -26 15 -6 21 -44 8 -44 -5 0
-16 -12 -26 -25 -17 -24 -17 -25 3 -45 11 -11 18 -25 15 -30 -4 -6 1 -13 9
-16 9 -3 16 -17 16 -30 0 -21 3 -22 25 -14 22 8 25 7 25 -11 0 -16 4 -19 20
-14 13 4 20 2 20 -7 0 -11 2 -11 8 0 7 10 19 11 56 2 35 -8 57 -22 90 -55 30
-32 48 -44 60 -39 11 4 22 0 32 -14 10 -15 121 -62 146 -62 2 0 4 11 4 25 2
25 -2 28 -88 63 -32 13 -46 65 -32 120 11 43 26 50 54 22 l21 -21 26 21 c33
25 48 25 85 -1 l29 -21 20 21 c42 45 96 39 133 -15 l23 -34 26 39 c41 62 94
63 143 2 l22 -26 31 34 c27 29 36 33 63 27 17 -3 42 -20 56 -36 27 -32 42 -38
42 -16 0 19 53 25 88 10 40 -16 58 -68 37 -101 -14 -20 -21 -23 -53 -17 -20 4
-45 13 -54 22 -16 14 -20 13 -35 -1 -23 -20 -100 -49 -136 -51 -15 0 -31 -7
-36 -14 -10 -17 -136 -35 -159 -23 -21 11 -162 -1 -144 -12 6 -5 12 -19 12
-32 0 -34 61 -53 114 -35 20 6 36 17 36 23 0 7 4 6 10 -3 8 -12 10 -11 10 8 0
12 5 22 11 22 7 0 9 -10 5 -24 -6 -25 -5 -25 61 -23 51 2 83 10 126 30 32 15
55 32 52 37 -4 6 4 10 17 10 16 0 19 -3 10 -9 -8 -5 11 -7 46 -6 33 2 65 6 71
9 6 4 16 4 22 0 6 -3 21 -2 32 4 12 5 45 16 72 25 28 9 81 27 118 41 37 14 85
26 106 26 35 0 38 -2 34 -24 -4 -17 1 -27 15 -35 22 -12 32 -6 32 21 0 13 7
18 25 18 25 0 33 14 15 25 -5 3 -10 22 -10 41 0 38 41 87 65 78 7 -3 15 2 18
10 4 9 13 13 21 10 19 -7 27 8 41 76 12 56 11 58 -26 136 -21 43 -39 85 -39
92 0 7 -4 11 -9 8 -13 -9 -20 31 -8 43 17 17 30 13 24 -9 -8 -30 8 -33 21 -5
10 21 8 29 -5 45 -10 11 -27 20 -38 20 -13 0 -25 11 -34 33 -8 17 -17 34 -20
37 -9 8 -30 42 -45 75 -18 37 -53 75 -70 75 -18 0 -57 56 -50 74 7 19 64 36
119 36 63 0 208 20 221 30 6 6 13 7 16 4 3 -3 18 6 33 21 16 14 25 28 22 32
-4 3 21 22 54 42 91 54 148 164 184 361 10 52 21 111 24 130 l7 35 61 -3 c65
-4 83 6 57 32 -15 15 -43 20 -91 16 -21 -1 -23 3 -23 54 0 43 4 56 18 60 9 3
109 8 222 11 154 5 212 4 235 -6 34 -14 30 -13 72 -23 18 -4 39 -17 47 -28 13
-18 15 -19 24 -2 9 16 13 16 43 4 l32 -14 -27 -9 c-26 -9 -27 -10 -8 -23 16
-11 19 -23 16 -64 -2 -28 1 -50 6 -50 6 0 10 -9 10 -20 0 -11 5 -20 10 -20 6
0 10 -14 10 -31 0 -17 5 -39 10 -50 9 -16 15 -17 31 -9 11 6 24 22 29 35 11
29 40 24 40 -7 0 -11 11 -34 24 -51 13 -18 44 -72 70 -122 45 -90 68 -125 79
-125 4 0 4 6 1 13 -3 8 2 20 11 27 8 7 15 19 15 26 0 9 12 14 34 14 30 0 37
-6 71 -61 21 -34 38 -74 39 -88 2 -51 76 -36 76 16 0 13 6 31 14 39 37 36 25
222 -15 247 -11 7 -19 17 -19 24 0 7 -16 15 -35 19 -19 3 -38 10 -41 15 -3 5
-15 9 -28 9 -27 0 -66 31 -66 53 0 21 20 33 30 18 5 -9 10 -8 20 4 7 8 23 15
36 15 18 0 22 -4 17 -17 -7 -17 -6 -17 11 0 9 9 20 17 24 17 14 0 72 62 67 70
-7 12 32 33 46 25 5 -4 7 -15 4 -24 -6 -21 4 -53 14 -47 17 11 52 -170 53
-269 1 -197 -25 -275 -129 -382 -24 -24 -43 -48 -43 -53 0 -24 29 -5 90 58 65
67 110 138 110 172 0 11 5 22 10 25 6 3 10 13 10 22 0 8 8 27 19 41 10 15 22
41 25 59 4 17 21 51 38 74 38 52 63 132 49 157 -10 16 -10 16 -11 0 0 -10 -4
-18 -10 -18 -15 0 -12 37 4 53 27 27 29 80 6 163 -27 98 -36 113 -82 153 -83
72 -179 46 -312 -85 -47 -46 -86 -90 -86 -97 0 -18 -55 -67 -75 -67 -14 0 -17
6 -12 34 l6 35 -36 -20 -35 -20 -23 23 c-23 22 -23 22 -5 58 29 55 106 122
215 186 119 70 134 78 202 99 42 13 53 21 52 38 0 12 5 49 10 82 5 33 15 121
21 195 17 195 36 316 51 336 5 6 7 19 3 28 -3 9 1 27 10 40 12 18 12 26 3 29
-9 4 -9 8 1 15 7 5 12 15 10 23 -2 9 4 13 17 11 18 -2 19 -2 2 8 -14 9 -17 23
-16 68 1 31 6 65 10 74 6 11 5 18 -4 21 -8 4 -9 8 -2 14 6 4 11 19 12 33 0 14
3 48 6 75 2 28 5 68 6 90 1 30 4 36 11 25 8 -12 10 -12 9 5 -1 42 -15 59 -49
61 -37 2 -51 18 -48 54 2 37 -33 110 -54 110 -14 0 -15 5 -7 32 7 25 6 34 -6
40 -8 5 -12 15 -9 23 3 8 -4 24 -15 36 -12 13 -21 26 -21 31 0 4 -7 5 -15 2
-18 -7 -20 18 -5 46 14 27 3 49 -22 42 -21 -5 -21 -7 -3 57 5 16 4 21 -4 17
-10 -7 -15 9 -14 42 1 9 -6 12 -20 8 -30 -7 -47 11 -47 51 0 30 -3 34 -20 28
-16 -5 -20 -2 -20 19 0 16 -6 26 -15 26 -8 0 -15 7 -15 15 0 8 -5 15 -11 15
-7 0 -9 10 -7 25 3 14 2 25 -3 25 -4 0 -7 12 -6 28 2 22 -2 26 -19 24 -15 -2
-23 6 -34 32 -7 19 -17 33 -22 30 -4 -3 -8 13 -8 35 0 39 -13 55 -23 29 -3 -7
-5 4 -4 25 0 39 -30 86 -40 60 -3 -7 -11 -13 -18 -13 -7 0 -15 6 -18 13 -3 9
-7 9 -20 -1 -20 -17 -37 -8 -37 19 0 15 -5 19 -19 14 -15 -4 -24 6 -47 57 -84
180 -98 203 -127 206 -20 3 -27 9 -27 26 0 33 -53 91 -185 203 -99 84 -164
123 -206 123 -30 0 -31 -1 -16 -18 10 -10 17 -24 17 -30 0 -7 6 -12 13 -12 7
0 26 -24 44 -52 30 -51 31 -53 11 -66 -16 -12 -24 -12 -51 -1 -18 8 -35 13
-39 11 -5 -1 -8 3 -8 8 0 6 -11 8 -25 4 -17 -4 -25 -2 -25 6 0 9 -11 11 -34 7
-28 -4 -42 1 -84 32 -64 48 -152 103 -152 94 0 -3 -8 1 -17 9 -34 28 -91 48
-141 48 -43 0 -49 -3 -46 -17 3 -12 -4 -22 -21 -30 -14 -6 -25 -7 -25 -2 0 5
-9 9 -20 9 -11 0 -55 13 -99 29 -43 16 -98 32 -120 36 -23 4 -43 11 -47 16 -6
11 -103 11 -124 0z m1160 -277 c0 -8 -4 -12 -10 -9 -5 3 -10 10 -10 16 0 5 5
9 10 9 6 0 10 -7 10 -16z m-40 -14 c0 -11 -4 -20 -10 -20 -5 0 -10 9 -10 20 0
11 5 20 10 20 6 0 10 -9 10 -20z m90 -68 c0 -12 -3 -12 -15 -2 -8 7 -15 22
-15 34 1 21 1 21 15 2 8 -11 15 -26 15 -34z m-2242 31 c-10 -2 -18 -9 -18 -14
0 -5 -7 -9 -15 -9 -16 0 -20 12 -8 23 3 4 18 6 32 6 17 -1 20 -3 9 -6z m2835
-613 c-3 -12 -8 -19 -11 -16 -5 6 5 36 12 36 2 0 2 -9 -1 -20z m-370 -804
c-17 -23 -91 -61 -101 -51 -5 5 53 56 65 57 4 0 17 6 27 14 27 19 31 10 9 -20z
m-153 -66 c0 -5 -5 -10 -11 -10 -5 0 -7 5 -4 10 3 6 8 10 11 10 2 0 4 -4 4
-10z m-30 -14 c0 -17 -24 -66 -36 -70 -19 -7 -18 6 4 43 14 26 32 41 32 27z
m167 -32 c-3 -3 -12 -4 -19 -1 -8 3 -5 6 6 6 11 1 17 -2 13 -5z m-77 -155 c0
-6 -4 -7 -10 -4 -5 3 -10 11 -10 16 0 6 5 7 10 4 6 -3 10 -11 10 -16z m-85
-679 c3 -5 -3 -10 -14 -10 -12 0 -21 5 -21 10 0 6 6 10 14 10 8 0 18 -4 21
-10z m25 -40 c0 -5 -4 -10 -10 -10 -5 0 -10 5 -10 10 0 6 5 10 10 10 6 0 10
-4 10 -10z m-1039 -70 c11 0 17 -4 14 -10 -8 -12 -62 -13 -69 -1 -8 12 6 22
22 16 7 -3 23 -5 33 -5z m-1741 -40 c121 -15 177 -29 243 -62 57 -29 151 -111
140 -122 -4 -3 3 -6 15 -6 12 0 22 5 22 10 0 6 5 10 10 10 6 0 10 -9 10 -21 0
-11 5 -17 10 -14 6 3 10 -3 10 -15 0 -12 -4 -19 -9 -16 -5 4 -12 0 -14 -6 -3
-7 -6 -1 -6 15 -1 20 -6 27 -21 27 -15 0 -20 -7 -20 -25 0 -22 -4 -25 -34 -25
-19 0 -38 5 -41 10 -4 6 -10 8 -15 5 -4 -3 -52 4 -107 16 -129 27 -267 27
-326 1 -54 -24 -117 -78 -117 -101 0 -9 -4 -21 -10 -27 -5 -5 -12 -35 -16 -67
l-7 -57 49 7 c27 3 54 12 59 20 8 10 18 11 50 2 22 -6 45 -15 50 -19 18 -14
93 -22 100 -11 10 17 55 13 55 -4 0 -18 26 -20 34 -2 5 9 7 9 12 0 3 -7 21
-15 40 -19 19 -3 33 -11 31 -18 -6 -19 -138 -49 -227 -51 -47 0 -93 -5 -102
-9 -20 -9 -24 -26 -7 -26 5 0 35 -12 66 -26 50 -24 63 -26 127 -20 79 8 99 10
171 24 27 6 53 8 58 5 16 -10 56 7 62 27 3 11 9 19 13 19 30 -5 50 4 55 23 7
26 -1 38 -13 19 -6 -11 -14 -10 -39 8 -17 12 -31 17 -31 11 0 -6 -4 -8 -10 -5
-5 3 -10 12 -10 19 0 16 63 19 108 7 19 -6 34 -6 37 0 4 5 10 9 14 9 18 0 -28
-171 -78 -292 -70 -167 -145 -245 -259 -269 -72 -15 -303 -6 -392 16 -206 49
-247 82 -299 240 -102 312 -107 629 -11 725 27 27 75 50 123 60 61 12 348 12
447 0z m1850 -59 c112 -19 169 -42 213 -86 19 -20 25 -34 21 -50 -4 -15 0 -24
10 -28 8 -3 22 -30 30 -58 18 -58 22 -179 6 -179 -5 0 -25 16 -44 35 -19 19
-46 37 -60 41 -14 3 -26 10 -26 15 0 5 -5 9 -11 9 -6 0 -22 14 -36 30 -13 17
-31 30 -39 30 -8 0 -14 5 -14 10 0 6 -7 10 -16 10 -8 0 -52 13 -97 29 -144 51
-253 60 -426 36 -19 -3 -40 0 -47 6 -7 6 -18 8 -24 4 -14 -8 -13 1 4 33 21 41
54 67 126 101 62 30 70 31 195 31 79 -1 171 -8 235 -19z m-1040 -166 c0 -12
-15 -15 -67 -17 -114 -3 -150 3 -138 22 3 6 50 10 106 10 81 0 99 -3 99 -15z
m2125 -45 c3 -5 -1 -10 -9 -10 -9 0 -16 5 -16 10 0 6 4 10 9 10 6 0 13 -4 16
-10z m70 0 c-3 -5 -11 -10 -16 -10 -6 0 -7 5 -4 10 3 6 11 10 16 10 6 0 7 -4
4 -10z m-2210 -9 c18 -2 37 -43 56 -122 10 -42 32 -123 49 -179 32 -109 38
-147 19 -120 -8 12 -9 10 -5 -7 3 -13 8 -33 11 -45 14 -56 29 -98 36 -98 4 0
14 -3 22 -6 10 -3 17 1 19 13 3 14 10 8 31 -25 15 -23 25 -48 21 -54 -5 -7 -3
-8 6 -3 10 6 11 0 6 -27 -6 -31 -4 -37 16 -43 13 -3 62 -49 111 -102 77 -84
87 -99 87 -132 0 -39 -19 -67 -66 -97 -28 -19 -163 -44 -170 -33 -3 5 -24 8
-48 7 -24 0 -65 7 -90 17 -35 14 -52 15 -69 8 -12 -6 -42 -16 -66 -23 -25 -7
-56 -17 -70 -22 -23 -10 -109 -11 -211 -3 -19 1 -47 -3 -61 -11 -19 -9 -29
-10 -37 -2 -13 13 -102 1 -102 -14 0 -7 16 -26 35 -44 34 -31 45 -66 25 -79
-15 -9 -2 -25 15 -18 8 3 15 0 15 -6 0 -6 9 -11 19 -11 11 0 23 -4 26 -10 3
-5 20 -14 38 -18 18 -5 31 -15 29 -22 -4 -18 18 -30 43 -24 26 6 73 -11 102
-38 30 -28 206 -40 226 -15 7 8 28 18 47 21 19 4 46 8 59 10 14 3 29 12 34 21
7 13 17 15 43 10 26 -4 36 -2 40 10 3 8 18 15 32 15 29 0 62 26 62 49 1 14 2
13 11 -1 11 -20 49 -25 49 -7 0 7 8 18 18 26 14 12 15 14 1 10 -12 -4 -16 1
-16 18 0 16 4 22 13 18 8 -3 14 -9 14 -14 0 -5 7 -9 16 -9 11 0 15 6 12 18 -6
20 17 46 33 37 5 -4 7 -16 4 -28 -5 -20 -4 -19 8 2 9 15 26 26 43 28 45 6 57
12 50 28 -3 8 -1 15 4 15 6 0 10 -5 10 -11 0 -8 24 -10 78 -6 l78 6 64 -42
c35 -23 75 -50 89 -60 l26 -17 -22 -6 c-28 -8 -29 -24 -3 -57 25 -31 25 -39 1
-54 -15 -10 -21 -10 -25 0 -5 9 -7 9 -12 0 -10 -23 -34 -14 -34 11 0 21 -5 25
-30 24 -21 -1 -30 -6 -30 -17 0 -24 -52 -44 -83 -32 -32 12 -40 1 -27 -35 14
-35 1 -48 -39 -39 -23 5 -31 12 -31 28 l0 20 -23 -21 c-13 -12 -29 -22 -35
-22 -7 0 -12 -2 -12 -4 0 -2 -3 -11 -6 -19 -3 -8 2 -22 11 -30 14 -15 14 -18
-7 -42 -16 -19 -29 -24 -48 -20 -14 2 -45 5 -70 6 -25 1 -49 5 -55 9 -14 10
-81 20 -229 35 -125 12 -183 8 -226 -15 -11 -6 -26 -4 -46 6 -30 16 -170 21
-235 9 -19 -3 -45 -8 -59 -10 -14 -2 -56 -11 -95 -20 -100 -24 -135 -26 -135
-10 0 8 5 17 10 20 18 11 11 47 -10 52 -13 3 -20 14 -20 29 0 13 -4 24 -9 24
-15 0 -22 32 -10 46 9 11 8 15 -4 20 -9 3 -13 12 -10 20 3 9 -1 14 -12 14 -11
0 -15 5 -11 15 3 8 9 22 12 30 3 8 1 15 -5 15 -15 0 -10 88 6 94 7 3 13 17 13
31 0 25 10 30 53 26 9 -1 17 3 17 10 0 9 4 8 15 -1 20 -16 22 -7 28 105 3 56
10 103 20 122 17 31 28 43 119 123 25 22 56 61 67 85 25 54 27 73 6 55 -8 -7
-15 -9 -15 -4 0 4 -11 -3 -25 -16 -14 -13 -28 -21 -31 -18 -3 4 17 53 44 110
62 129 102 222 102 238 0 8 9 11 25 8 32 -7 38 4 41 72 1 30 6 54 11 53 6 -1
16 10 23 25 7 15 23 48 36 74 13 27 24 57 24 67 0 24 22 29 105 22z m127 -26
c2 -11 10 -19 16 -17 7 1 12 -2 12 -8 0 -5 17 -10 38 -10 20 0 32 -4 26 -8 -5
-4 -10 -17 -10 -30 0 -19 5 -23 23 -19 12 2 20 0 17 -4 -11 -19 8 -29 23 -13
15 14 18 13 38 -10 12 -14 26 -22 30 -18 4 4 4 -3 1 -16 -9 -27 15 -40 47 -24
33 17 49 17 91 -2 21 -10 44 -15 51 -12 7 2 18 -1 24 -7 8 -8 11 -8 11 1 0 8
7 9 27 1 19 -7 29 -7 31 0 2 7 36 11 82 11 73 0 80 2 99 26 12 15 21 39 21 53
0 25 29 61 50 61 6 0 10 -11 10 -25 0 -13 6 -36 12 -51 9 -20 10 -28 2 -31 -9
-3 -9 -10 -1 -28 11 -21 20 -24 97 -29 47 -3 112 -9 145 -15 33 -5 93 -13 133
-17 l72 -7 0 -36 c-1 -110 -38 -288 -76 -363 -41 -81 -116 -115 -298 -138
-116 -15 -336 -8 -411 13 -129 36 -216 134 -337 378 -59 120 -118 319 -118
396 0 38 14 36 22 -2z m-741 -48 c-13 -13 -26 -3 -16 12 3 6 11 8 17 5 6 -4 6
-10 -1 -17z m29 -31 c0 -18 -17 -39 -42 -52 -38 -20 -43 -14 -21 25 12 20 26
31 41 31 12 0 22 -2 22 -4z m2895 -246 c-3 -5 -11 -10 -16 -10 -6 0 -7 5 -4
10 3 6 11 10 16 10 6 0 7 -4 4 -10z m-1289 -927 c-10 -10 -19 5 -10 18 6 11 8
11 12 0 2 -7 1 -15 -2 -18z m-1706 -292 c-1 -17 -17 -29 -29 -21 -19 11 -6 41
14 34 8 -3 15 -9 15 -13z m1667 -93 c-3 -8 -6 -5 -6 6 -1 11 2 17 5 13 3 -3 4
-12 1 -19z m-587 -191 c0 -7 -14 -12 -30 -13 -17 -1 -30 3 -30 8 0 5 4 7 9 4
5 -3 14 1 21 9 13 16 30 11 30 -8z"/>
<path d="M1795 3949 c-4 -5 0 -18 8 -27 8 -9 18 -38 22 -64 l7 -48 -32 0 c-17
0 -40 5 -51 11 -27 14 -51 -6 -47 -40 3 -24 8 -27 59 -33 30 -4 60 -8 65 -9 5
-1 21 1 37 5 41 12 60 -9 54 -57 -6 -43 0 -70 13 -62 5 3 11 1 15 -5 3 -5 1
-10 -4 -10 -17 0 -13 -37 5 -44 9 -3 17 -6 19 -6 10 0 -4 110 -18 136 -19 37
-15 44 30 44 27 0 34 4 31 17 -2 12 -18 20 -48 26 -25 5 -61 12 -80 16 -33 6
-35 8 -32 43 2 22 -5 52 -18 77 -22 44 -25 47 -35 30z"/>
<path d="M1884 3545 c3 -22 6 -52 6 -67 0 -16 4 -28 9 -28 14 0 4 111 -10 124
-9 8 -10 1 -5 -29z"/>
<path d="M3490 2460 c0 -5 5 -10 10 -10 6 0 10 5 10 10 0 6 -4 10 -10 10 -5 0
-10 -4 -10 -10z"/>
<path d="M2518 2435 c-4 -20 -3 -23 8 -14 16 13 19 39 5 39 -5 0 -11 -11 -13
-25z"/>
<path d="M2568 2433 c7 -3 16 -2 19 1 4 3 -2 6 -13 5 -11 0 -14 -3 -6 -6z"/>
<path d="M3281 3621 c-12 -16 -21 -33 -21 -38 -1 -17 85 -176 88 -162 2 8 18
25 37 39 34 24 42 50 29 84 -9 23 -34 20 -34 -4 0 -11 -6 -20 -13 -20 -23 0
-28 13 -11 31 13 14 13 24 4 58 -9 34 -15 41 -35 41 -15 0 -31 -11 -44 -29z
m34 -52 c0 -32 -9 -38 -19 -13 -7 19 3 59 12 49 4 -4 7 -20 7 -36z"/>
<path d="M3707 3512 c-9 -2 -15 -8 -12 -13 4 -5 2 -9 -4 -9 -5 0 -12 4 -15 8
-3 5 -19 9 -35 10 -28 1 -29 0 -16 -25 18 -34 74 -70 153 -98 111 -38 412 -77
412 -53 0 6 -9 12 -20 15 -11 3 -17 9 -15 14 3 4 13 5 21 2 13 -5 15 -1 9 15
-5 19 -3 22 24 22 16 0 33 5 37 11 15 25 -83 55 -101 31 -7 -8 -36 -13 -85
-14 -168 -2 -313 32 -331 77 -2 6 -12 9 -22 7z"/>
<path d="M3522 3129 c7 -20 88 -76 123 -85 l30 -7 -30 25 c-47 39 -129 84
-123 67z"/>
<path d="M2574 6615 c-24 -18 -7 -19 26 0 16 9 19 14 9 15 -8 0 -24 -7 -35
-15z"/>
<path d="M6769 5108 c-7 -24 -5 -40 7 -45 20 -8 27 2 19 26 -5 17 -22 29 -26
19z"/>
<path d="M6791 5015 c-21 -7 -29 -15 -22 -19 17 -11 13 -23 -9 -29 -26 -7 -26
-37 -1 -37 24 0 36 -16 19 -23 -8 -4 -4 -8 10 -13 12 -3 25 -16 28 -28 3 -12
21 -32 41 -46 19 -13 30 -26 24 -28 -9 -3 -9 -7 0 -18 6 -7 9 -19 7 -26 -3 -7
10 -36 29 -65 18 -29 33 -57 33 -63 0 -5 5 -10 10 -10 6 0 10 -8 10 -18 0 -10
9 -26 21 -36 14 -11 19 -25 16 -38 -4 -14 0 -22 14 -25 10 -3 19 -13 19 -23 0
-10 6 -23 13 -29 8 -6 20 -29 27 -52 8 -23 19 -43 26 -46 27 -10 -36 -113 -70
-113 -8 0 -21 -6 -28 -13 -21 -21 -89 -37 -139 -32 l-46 3 -2 -63 c-1 -48 4
-74 19 -102 11 -21 20 -46 20 -56 0 -11 8 -31 18 -45 10 -15 22 -35 25 -44 4
-10 13 -18 22 -18 8 0 15 -9 15 -20 0 -10 13 -34 28 -52 16 -18 39 -53 51 -78
13 -25 27 -48 32 -51 5 -3 11 -40 13 -83 3 -65 2 -76 -10 -72 -8 3 -12 2 -9
-4 7 -12 -21 -27 -74 -39 -42 -9 -78 -2 -133 25 -29 15 -64 18 -72 6 -13 -22
-170 -4 -226 25 -14 7 -29 13 -33 13 -8 0 -72 28 -131 56 -16 8 -34 14 -41 14
-6 0 -34 12 -63 26 -41 20 -52 31 -52 49 0 27 -16 42 -23 23 -3 -8 -6 -6 -6 5
-1 9 -5 17 -11 17 -13 0 -13 -6 5 -64 26 -86 30 -195 10 -283 -10 -43 -22 -82
-27 -87 -12 -15 -10 -52 2 -40 12 12 70 6 70 -6 0 -4 11 -11 25 -14 14 -4 25
-11 25 -17 0 -5 10 -23 21 -39 13 -17 20 -37 16 -49 -4 -17 0 -21 19 -21 19 0
24 -5 24 -25 0 -26 -14 -34 -24 -12 -4 6 -4 2 -2 -11 2 -12 0 -20 -5 -16 -5 3
-9 0 -9 -5 0 -19 -17 -12 -23 10 -3 11 -19 25 -35 31 -34 13 -59 53 -39 62 7
2 4 5 -5 5 -12 1 -18 -7 -18 -21 -1 -21 -3 -20 -29 12 -16 19 -33 32 -37 27
-4 -4 -2 -7 4 -7 7 0 12 -7 12 -17 0 -15 -1 -15 -18 0 -10 10 -22 14 -26 10
-13 -13 -47 -96 -77 -185 -29 -89 -87 -207 -119 -243 -9 -11 -35 -47 -58 -80
-57 -85 -120 -135 -170 -135 -21 0 -42 3 -46 7 -9 10 -30 14 -114 22 -39 4
-74 10 -75 12 -27 34 -35 55 -30 85 4 22 2 34 -6 34 -6 0 -11 -7 -11 -15 0 -8
-4 -15 -8 -15 -18 0 -43 -110 -47 -206 -4 -102 -49 -314 -66 -314 -5 0 -9 -19
-9 -42 0 -67 -9 -39 -11 35 -1 36 -6 64 -10 61 -5 -3 -9 -13 -9 -22 -1 -21
-23 -52 -39 -52 -6 0 -12 -4 -12 -10 -1 -5 -2 -14 -3 -20 -3 -22 -20 -13 -37
20 -15 28 -19 31 -19 13 0 -21 -31 -40 -48 -29 -5 3 -7 -5 -5 -18 6 -28 -8
-38 -53 -42 -32 -2 -34 -1 -34 31 0 25 -6 37 -22 46 -14 8 -18 14 -10 17 17 5
15 32 -3 32 -8 0 -25 -5 -39 -11 -19 -9 -29 -9 -39 -1 -18 15 -30 3 -16 -15 9
-10 8 -13 -4 -13 -9 0 -20 6 -24 14 -4 8 -17 15 -28 17 -12 3 -21 14 -23 27
-2 15 -9 22 -17 18 -24 -9 -26 7 -3 31 l22 24 -22 6 c-33 8 -24 38 11 38 15
-1 27 3 27 7 0 4 -4 8 -10 8 -14 0 -12 38 2 42 8 3 -1 17 -22 35 -19 17 -54
49 -77 71 -24 22 -56 43 -73 47 -16 4 -32 10 -35 14 -2 5 -27 4 -55 -2 -43 -8
-53 -7 -69 7 -14 13 -21 14 -26 6 -4 -7 -1 -16 6 -21 12 -7 11 -9 -1 -9 -9 0
-16 -9 -17 -20 -1 -11 3 -20 10 -20 7 0 8 -3 1 -10 -13 -13 -64 4 -64 20 0 6
-15 10 -32 9 -18 -1 -43 1 -56 5 -14 5 -29 3 -38 -5 -12 -10 -17 -9 -28 6 -8
12 -19 16 -30 12 -15 -6 -14 -10 11 -31 15 -13 30 -20 33 -16 3 5 19 -3 36
-18 16 -15 39 -32 49 -38 14 -8 19 -20 17 -39 -4 -33 15 -83 40 -108 25 -24
23 -34 -8 -41 -26 -7 -26 -7 -7 -21 34 -24 35 -52 2 -88 -16 -17 -29 -37 -29
-44 0 -7 -5 -13 -10 -13 -6 0 -17 -18 -26 -40 -9 -22 -20 -40 -25 -40 -5 0 -9
-13 -9 -29 0 -49 -11 -89 -32 -111 -11 -11 -22 -36 -25 -55 -3 -18 -12 -36
-19 -39 -11 -4 -12 -1 -4 14 5 10 10 23 10 29 0 20 -20 11 -32 -14 -6 -13 -15
-22 -20 -19 -5 3 -12 -4 -15 -15 -3 -12 -12 -20 -21 -19 -10 2 -19 -8 -25 -27
-19 -62 -27 -75 -44 -74 -14 1 -15 2 -2 6 14 4 25 73 11 73 -9 0 -52 -52 -52
-63 0 -5 9 -22 20 -37 12 -18 16 -31 10 -35 -6 -4 -4 -15 6 -31 10 -15 12 -24
5 -24 -6 0 -11 -6 -11 -13 0 -8 -11 -20 -25 -27 -30 -16 -28 -32 5 -40 15 -4
24 -13 25 -27 1 -12 -2 -20 -7 -17 -4 3 -8 0 -8 -5 0 -13 -37 -51 -49 -51 -5
0 -11 -10 -13 -22 -5 -36 -34 -34 -47 4 -11 30 -13 31 -23 14 -9 -15 -6 -22
13 -37 13 -10 37 -19 52 -19 27 0 28 -2 22 -33 -4 -17 -12 -38 -17 -44 -17
-22 -31 -14 -25 13 3 19 -2 32 -21 49 -14 13 -30 21 -35 18 -5 -3 3 -16 17
-30 30 -27 29 -24 16 -57 -11 -30 -47 -55 -95 -66 -28 -6 -37 -4 -45 9 -8 14
-11 13 -16 -7 -5 -18 -12 -23 -30 -19 -16 3 -24 0 -24 -9 0 -10 -6 -11 -26 -4
-36 14 -44 13 -44 -10 0 -21 -33 -60 -50 -60 -5 0 -10 7 -10 15 0 23 -18 18
-22 -5 -4 -27 -22 -27 -26 0 -3 20 -22 29 -22 10 0 -14 -28 -12 -32 2 -3 8
-13 6 -34 -8 -21 -14 -42 -19 -74 -17 -25 2 -64 3 -86 4 -36 1 -41 3 -37 20 3
10 14 21 24 24 10 4 19 13 19 22 0 10 -6 13 -16 9 -9 -4 -23 -1 -30 5 -11 9
-19 8 -36 -3 -19 -12 -27 -12 -47 -2 -22 11 -26 10 -44 -13 -15 -19 -22 -22
-28 -11 -7 10 -10 8 -15 -9 -4 -13 -11 -20 -16 -17 -6 4 -8 -2 -3 -14 6 -21 4
-21 -59 -15 -49 4 -70 2 -83 -8 -15 -12 -16 -12 -10 5 5 11 3 22 -4 26 -17 11
-49 0 -49 -16 0 -21 -18 -17 -30 6 -9 17 -17 20 -44 15 -28 -6 -34 -3 -44 19
-12 27 -32 35 -32 13 0 -7 5 -18 12 -25 7 -7 8 -12 2 -12 -5 0 -20 12 -33 26
l-24 25 21 15 c27 19 28 34 3 34 -60 0 -65 -29 -20 -109 35 -61 127 -175 165
-204 13 -10 24 -25 24 -33 0 -9 4 -13 9 -10 10 6 141 -118 141 -134 0 -5 6
-10 14 -10 8 0 19 -12 24 -27 6 -16 11 -22 11 -15 2 22 21 3 21 -20 0 -12 -3
-18 -7 -15 -9 10 -33 -13 -33 -32 1 -9 34 -42 75 -74 77 -59 88 -78 58 -96
-16 -9 -14 -14 23 -49 23 -22 48 -42 55 -45 12 -5 12 -7 -1 -16 -8 -5 -11 -14
-6 -18 5 -4 11 -2 13 5 6 15 29 16 38 2 4 -6 1 -18 -6 -26 -9 -12 -9 -20 1
-39 7 -13 17 -22 21 -19 11 6 19 -10 27 -58 8 -43 32 -66 32 -29 0 31 15 33
54 6 l37 -25 615 0 616 0 -8 33 c-4 17 -7 42 -6 55 2 25 -9 28 -38 10 -16 -10
-24 -10 -40 0 -11 6 -26 12 -34 12 -7 0 -16 9 -19 21 -4 15 1 22 19 29 13 5
26 21 30 35 3 14 10 25 15 25 5 0 6 7 3 15 -4 10 -13 13 -25 10 -13 -4 -21 -1
-25 10 -4 9 -17 21 -30 25 -15 6 -22 15 -18 24 3 8 1 17 -5 21 -6 3 -11 1 -11
-6 0 -18 -70 -3 -85 18 -19 26 -1 47 26 30 17 -10 22 -9 33 5 7 10 15 16 17
14 2 -2 10 2 17 10 7 8 8 14 2 14 -5 0 -10 7 -10 16 0 23 31 87 47 97 7 4 13
23 13 42 0 18 7 41 16 49 17 18 39 22 29 6 -3 -5 -1 -10 5 -10 7 0 14 9 17 20
3 13 14 20 29 20 19 0 24 5 24 24 0 14 5 28 10 31 6 3 10 14 10 25 0 10 7 21
15 24 9 3 15 13 13 22 -2 9 2 19 9 21 8 3 10 -7 7 -34 -4 -31 -3 -35 6 -21 6
10 16 18 21 18 6 0 26 12 44 26 19 14 37 25 42 23 16 -4 34 46 29 82 -5 44 26
119 49 119 9 0 18 12 22 31 3 17 16 37 28 45 12 8 27 32 34 55 7 22 19 43 27
46 16 6 19 33 4 33 -5 0 -9 3 -8 8 0 4 -2 15 -7 25 -5 12 0 25 19 44 22 21 26
32 20 56 -3 16 -2 39 4 51 5 11 15 54 21 95 7 43 19 83 31 98 11 14 20 34 20
44 0 11 4 19 8 19 11 0 34 53 61 140 l20 65 -2 -106 c-2 -121 0 -126 75 -164
60 -30 130 -86 147 -117 7 -13 28 -34 47 -48 20 -14 50 -41 67 -60 53 -58 113
-117 124 -121 6 -2 22 -26 37 -54 74 -139 140 -214 229 -259 31 -16 64 -37 73
-48 10 -10 21 -18 27 -18 5 0 39 -20 76 -44 36 -24 91 -56 121 -70 34 -16 87
-56 135 -104 190 -184 174 -173 283 -193 139 -25 240 -46 292 -59 25 -6 68
-16 97 -21 29 -5 64 -14 78 -19 15 -6 33 -10 41 -10 12 0 14 296 14 2205 0
1840 -2 2205 -13 2205 -8 0 -22 9 -32 20 -13 15 -31 20 -67 20 -31 0 -47 4
-43 10 4 6 12 7 18 3 7 -3 3 3 -7 16 -11 12 -26 19 -34 16 -19 -7 -42 13 -35
31 4 10 -2 14 -21 14 -14 0 -26 -4 -26 -9 0 -10 -32 -7 -50 4 -14 9 -12 32 3
39 9 3 7 8 -5 19 -14 11 -15 16 -5 27 10 10 7 11 -15 6 -26 -6 -27 -5 -22 24
4 16 5 29 3 29 -2 -1 -19 -7 -38 -14z m-531 -1745 c0 -5 -4 -10 -10 -10 -5 0
-10 5 -10 10 0 6 5 10 10 10 6 0 10 -4 10 -10z m179 -870 c11 0 21 -7 25 -15
3 -8 12 -12 21 -9 11 5 15 -1 15 -24 0 -16 3 -44 7 -62 6 -30 4 -33 -16 -27
-13 3 -21 1 -20 -6 4 -25 -13 -48 -32 -42 -12 4 -27 -2 -41 -18 -13 -13 -35
-27 -50 -31 -25 -6 -28 -3 -32 26 -13 86 -15 130 -7 146 5 9 12 25 15 35 3 10
19 23 36 28 17 6 30 18 30 27 0 13 4 11 16 -6 8 -12 23 -22 33 -22z m-1714
-239 c3 -5 1 -12 -5 -16 -5 -3 -10 1 -10 9 0 18 6 21 15 7z m239 -96 c3 -8 1
-15 -4 -15 -6 0 -10 7 -10 15 0 8 2 15 4 15 2 0 6 -7 10 -15z m-234 -29 c0 -3
-4 -8 -10 -11 -5 -3 -10 -1 -10 4 0 6 5 11 10 11 6 0 10 -2 10 -4z m523 -65
c-6 -9 -14 -32 -18 -51 l-8 -35 -8 30 c-5 18 -5 31 1 33 6 2 13 22 17 45 6 38
7 40 17 18 7 -16 7 -28 -1 -40z m-1158 -421 c-10 -11 -25 -20 -33 -20 -15 0
-14 8 1 9 4 0 15 7 23 16 23 22 30 18 9 -5z m-957 -530 c-7 -10 -14 -17 -17
-15 -4 4 18 35 25 35 2 0 -1 -9 -8 -20z m327 -88 c-3 -3 -11 0 -18 7 -9 10 -8
11 6 5 10 -3 15 -9 12 -12z m1295 -102 c0 -5 -5 -10 -11 -10 -5 0 -7 5 -4 10
3 6 8 10 11 10 2 0 4 -4 4 -10z m-325 -600 c-3 -5 -11 -10 -16 -10 -6 0 -7 5
-4 10 3 6 11 10 16 10 6 0 7 -4 4 -10z m89 -5 c-8 -19 -36 -35 -61 -35 -15 1
-13 5 10 25 32 28 60 33 51 10z m-1214 -66 c0 -6 -4 -7 -10 -4 -5 3 -10 11
-10 16 0 6 5 7 10 4 6 -3 10 -11 10 -16z m1164 -55 c-5 -20 -3 -25 7 -22 8 3
14 12 14 21 0 8 4 19 8 23 4 4 7 0 7 -9 0 -9 6 -17 14 -17 7 0 20 -7 27 -16
11 -14 10 -18 -6 -30 -25 -18 -64 -18 -71 1 -4 8 -12 15 -19 15 -31 0 -28 45
3 53 10 3 18 5 20 6 1 0 -1 -11 -4 -25z m101 -84 c-3 -6 -15 -10 -25 -10 -10
0 -22 5 -25 10 -4 6 7 10 25 10 18 0 29 -4 25 -10z"/>
<path d="M6895 4930 c-3 -5 3 -10 14 -10 12 0 21 5 21 10 0 6 -6 10 -14 10 -8
0 -18 -4 -21 -10z"/>
<path d="M2234 4261 c-16 -10 -35 -25 -42 -34 -11 -13 -10 -17 5 -26 16 -9 14
-11 -15 -17 -56 -11 -47 -25 15 -23 32 2 175 0 318 -4 154 -4 250 -3 235 2
-14 5 -36 9 -49 10 -13 1 -42 13 -65 29 -30 20 -72 33 -156 49 -172 33 -212
35 -246 14z"/>
<path d="M4350 4040 c19 -13 30 -13 30 0 0 6 -10 10 -22 10 -19 0 -20 -2 -8
-10z"/>
<path d="M5630 3590 c0 -5 5 -10 10 -10 6 0 10 5 10 10 0 6 -4 10 -10 10 -5 0
-10 -4 -10 -10z"/>
<path d="M200 3565 c0 -25 14 -34 24 -16 8 12 -3 41 -15 41 -5 0 -9 -11 -9
-25z"/>
<path d="M160 3540 c0 -5 5 -10 10 -10 6 0 10 5 10 10 0 6 -4 10 -10 10 -5 0
-10 -4 -10 -10z"/>
<path d="M240 3520 c0 -5 -16 -10 -37 -10 -42 0 -39 -11 4 -14 16 -1 37 6 48
16 16 16 17 18 2 18 -9 0 -17 -4 -17 -10z"/>
<path d="M90 3480 c0 -11 5 -20 10 -20 6 0 10 9 10 20 0 11 -4 20 -10 20 -5 0
-10 -9 -10 -20z"/>
<path d="M200 3435 c0 -8 5 -15 10 -15 6 0 10 7 10 15 0 8 -4 15 -10 15 -5 0
-10 -7 -10 -15z"/>
<path d="M1030 3426 c0 -2 7 -6 15 -10 8 -3 15 -1 15 4 0 6 -7 10 -15 10 -8 0
-15 -2 -15 -4z"/>
<path d="M1051 3357 c-18 -47 -14 -74 12 -79 16 -3 23 0 24 11 1 9 3 23 5 31
2 8 -3 14 -10 12 -8 -1 -11 2 -7 8 3 5 2 18 -4 27 -8 16 -11 15 -20 -10z"/>
<path d="M1138 3268 c-3 -20 -8 -22 -58 -20 -38 1 -49 -1 -35 -7 16 -7 67 -8
108 -2 10 1 9 51 -2 51 -5 0 -11 -10 -13 -22z"/>
<path d="M5300 3135 c0 -35 13 -47 23 -21 7 18 -3 56 -14 56 -5 0 -9 -16 -9
-35z"/>
<path d="M1023 2923 c-12 -2 -27 -11 -33 -19 -7 -8 -21 -14 -31 -14 -26 0 -24
-16 4 -25 18 -6 19 -8 5 -12 -9 -2 -25 0 -35 5 -10 5 -44 8 -75 7 -34 -2 -58
1 -58 7 0 6 -7 7 -16 4 -14 -6 -126 -7 -229 -3 -35 2 -54 -2 -62 -13 -9 -11
-12 -12 -13 -2 0 7 -4 11 -9 7 -5 -3 -12 -1 -16 4 -3 6 -12 8 -19 5 -8 -3 -17
0 -21 5 -3 6 -11 9 -16 6 -5 -3 -6 2 -2 11 4 12 2 15 -8 12 -8 -3 -14 -11 -14
-18 0 -9 -22 -12 -90 -12 -50 1 -105 4 -123 8 -25 5 -32 3 -32 -9 0 -10 -22
-21 -65 -32 l-65 -18 0 -485 c0 -429 2 -483 15 -472 11 9 18 10 29 1 10 -9 15
-8 19 3 5 12 26 15 47 5 6 -3 29 -6 57 -8 15 0 21 -6 17 -15 -3 -8 4 -21 16
-29 12 -8 23 -23 24 -33 2 -11 5 -17 7 -14 2 2 16 -7 32 -20 17 -15 23 -26 16
-31 -8 -5 -8 -16 0 -42 7 -19 12 -53 11 -74 0 -21 0 -47 0 -58 -1 -49 15 -171
25 -197 4 -11 3 -18 -4 -18 -6 0 -11 -5 -11 -11 0 -5 10 -9 22 -7 21 3 22 -1
20 -34 -3 -28 0 -38 11 -38 9 0 18 6 20 13 4 8 6 6 6 -4 1 -16 66 -34 166 -45
31 -3 56 -12 68 -25 10 -10 24 -19 32 -19 9 0 15 -10 15 -26 0 -19 4 -25 15
-20 8 3 15 2 15 -2 1 -4 3 -29 5 -57 2 -27 6 -108 9 -179 6 -150 13 -195 33
-218 8 -9 12 -21 9 -27 -3 -5 7 -19 24 -31 16 -12 30 -30 30 -40 0 -12 5 -17
13 -14 8 3 20 -2 27 -11 17 -21 92 -21 84 0 -4 8 -2 15 4 15 6 0 12 -5 14 -11
5 -14 56 -21 72 -11 6 4 -5 9 -24 12 l-35 6 44 14 c25 8 47 21 49 29 3 8 0 11
-7 7 -7 -5 -11 3 -11 23 0 16 -5 42 -11 58 -6 15 -11 78 -12 138 -1 61 -6 113
-12 118 -6 4 -3 13 9 22 10 7 15 18 11 24 -6 11 -17 77 -19 123 0 15 -10 33
-20 41 -13 10 -15 16 -8 21 13 8 16 48 5 59 -3 4 -17 0 -29 -8 -21 -13 -24
-13 -33 2 -7 13 -25 18 -80 19 -74 2 -151 28 -151 51 0 7 -5 12 -12 11 -7 -2
-18 33 -30 92 -21 108 -21 105 -13 145 4 17 6 53 7 80 0 28 4 55 10 62 5 7 7
22 3 34 -6 17 -4 21 8 16 13 -5 15 3 12 48 -3 53 13 91 50 117 19 14 65 8 102
-12 21 -11 43 -20 49 -20 6 0 32 -27 58 -60 51 -65 48 -49 46 -233 -1 -22 5
-46 12 -54 7 -9 13 -26 13 -37 1 -12 5 -27 9 -35 6 -9 3 -17 -7 -23 -13 -7
-14 -13 -5 -36 6 -15 10 -53 9 -86 -2 -45 1 -58 11 -54 7 3 34 2 59 -1 26 -4
55 -4 65 -1 11 4 44 -1 74 -11 30 -10 65 -18 78 -18 15 -1 22 -7 22 -21 0 -12
5 -17 13 -14 23 9 41 -25 38 -71 -1 -24 2 -46 7 -49 5 -3 10 -52 12 -108 3
-117 4 -137 13 -158 3 -8 8 -36 12 -62 3 -27 13 -51 21 -56 14 -8 100 8 124
23 16 10 67 91 74 118 3 15 10 27 15 27 12 0 51 76 44 84 -4 3 -1 6 6 6 7 0 9
9 6 23 -3 12 -6 33 -7 47 -1 14 -5 30 -8 35 -14 20 -32 105 -27 124 5 22 -1
34 -28 49 l-20 12 20 -3 c29 -3 34 17 5 21 -14 2 -32 9 -40 16 -20 17 -48 27
-90 32 -76 9 -120 27 -143 58 -35 49 -57 94 -57 116 0 12 -7 35 -16 52 -12 22
-14 43 -9 77 4 25 9 79 10 119 3 76 19 155 42 209 10 25 22 35 55 44 24 6 51
15 61 20 10 5 23 6 30 2 15 -9 47 -12 47 -3 0 10 32 5 58 -9 12 -6 28 -11 35
-9 15 3 115 -62 143 -93 29 -33 36 -107 18 -199 -19 -96 -25 -188 -13 -195 15
-10 10 -35 -6 -29 -12 5 -14 -2 -11 -37 3 -27 9 -43 16 -41 6 1 14 -7 17 -18
3 -13 14 -20 29 -20 12 0 26 -4 29 -10 3 -5 21 -10 40 -10 19 0 36 -4 40 -10
3 -5 12 -7 19 -4 18 7 56 -59 49 -85 -4 -17 -1 -21 19 -21 14 0 34 10 46 23
12 13 44 34 72 47 40 20 52 32 60 59 12 43 8 47 -29 31 -42 -17 -128 -5 -126
18 0 10 4 23 9 30 4 6 3 19 -2 28 -6 11 -6 30 0 50 10 36 -8 77 -39 88 -11 5
-14 15 -9 40 4 21 2 37 -4 41 -8 5 -5 13 8 25 14 13 20 33 21 67 0 55 3 73 15
91 5 8 2 20 -6 30 -21 26 -37 62 -47 112 -6 24 -15 46 -20 48 -6 2 -11 9 -11
17 0 7 -7 18 -15 25 -8 7 -15 21 -15 31 0 10 -9 23 -21 29 -11 7 -18 17 -16
24 4 9 -9 12 -46 11 -42 -1 -52 -4 -51 -18 1 -9 -1 -17 -5 -17 -8 0 -71 107
-71 120 0 5 -6 13 -14 17 -8 5 -18 37 -23 79 -9 71 -9 72 19 98 18 17 28 36
28 55 0 17 5 33 10 36 19 12 10 25 -18 25 -16 0 -71 15 -123 34 -138 50 -149
54 -180 77 -16 11 -29 17 -29 14 0 -4 -16 2 -36 14 -19 12 -42 21 -50 21 -8 0
-14 8 -14 18 0 10 -13 32 -30 50 -16 18 -30 37 -30 43 0 5 -4 9 -10 9 -5 0
-10 8 -10 19 0 23 -45 43 -84 36 -22 -5 -27 -3 -23 9 5 13 -14 28 -31 25 -4
-1 -17 -4 -29 -6z m170 -452 c4 -1 7 -9 7 -20 0 -10 9 -21 20 -24 12 -3 20
-14 20 -26 0 -12 4 -21 9 -21 11 0 9 -50 -3 -69 -6 -10 -5 -16 2 -19 17 -5 15
-32 -3 -32 -8 0 -15 -4 -15 -10 0 -5 7 -10 15 -10 19 0 20 -26 0 -34 -9 -3
-12 -12 -8 -23 3 -10 2 -15 -2 -10 -5 4 -22 -6 -39 -21 -17 -16 -41 -32 -52
-34 -30 -7 -74 34 -67 62 3 12 0 20 -7 20 -14 0 -40 25 -40 39 0 6 -5 11 -10
11 -11 0 -28 37 -27 55 1 6 7 9 14 7 18 -4 16 15 -2 25 -13 8 -13 11 3 28 10
11 27 38 38 60 20 42 49 55 109 49 17 -1 33 -3 38 -3z m-750 -43 c5 -18 8 -19
22 -8 21 17 29 7 15 -20 -10 -18 -9 -22 8 -27 12 -3 23 -17 27 -36 13 -62 17
-150 7 -171 -6 -11 -13 -39 -16 -60 -3 -22 -11 -44 -17 -50 -9 -8 -10 -8 -5 2
9 15 -11 16 -51 1 -28 -9 -33 -7 -63 22 -17 18 -33 41 -36 52 -2 11 -10 24
-18 31 -10 7 -17 35 -20 76 -5 59 -3 69 19 94 14 16 25 34 25 39 0 11 51 61
62 62 3 0 10 3 14 8 13 12 21 8 27 -15z m1577 -1202 c0 -3 -4 -8 -10 -11 -5
-3 -10 -1 -10 4 0 6 5 11 10 11 6 0 10 -2 10 -4z"/>
<path d="M1046 2404 c-9 -22 -8 -24 9 -18 8 4 15 12 15 20 0 19 -16 18 -24 -2z"/>
<path d="M5586 2721 c-8 -12 7 -28 46 -49 39 -22 48 -20 48 10 0 12 -4 16 -12
12 -6 -4 -16 0 -22 8 -12 17 -54 30 -60 19z"/>
<path d="M1994 2449 c-7 -12 15 -31 28 -23 4 3 8 12 8 20 0 17 -26 19 -36 3z"/>
<path d="M2040 2450 c0 -5 4 -10 9 -10 6 0 13 5 16 10 3 6 -1 10 -9 10 -9 0
-16 -4 -16 -10z"/>
<path d="M4870 2320 c0 -5 5 -10 11 -10 5 0 7 5 4 10 -3 6 -8 10 -11 10 -2 0
-4 -4 -4 -10z"/>
<path d="M5295 2300 c-3 -5 -1 -10 4 -10 6 0 11 5 11 10 0 6 -2 10 -4 10 -3 0
-8 -4 -11 -10z"/>
<path d="M4990 2154 c0 -8 5 -12 10 -9 6 4 8 11 5 16 -9 14 -15 11 -15 -7z"/>
<path d="M5211 2124 c0 -11 3 -14 6 -6 3 7 2 16 -1 19 -3 4 -6 -2 -5 -13z"/>
<path d="M5036 2055 c-7 -19 3 -47 15 -39 5 3 9 14 9 24 0 24 -16 34 -24 15z"/>
<path d="M4080 2040 c0 -23 0 -23 34 -10 35 13 33 30 -4 30 -23 0 -30 -4 -30
-20z"/>
<path d="M2321 2028 c-1 -15 4 -30 9 -33 12 -7 12 12 0 40 -8 18 -9 17 -9 -7z"/>
<path d="M2410 1790 c-9 -6 -10 -10 -3 -10 6 0 15 5 18 10 8 12 4 12 -15 0z"/>
<path d="M2407 1756 c-6 -16 2 -28 14 -20 12 7 11 34 0 34 -5 0 -11 -6 -14
-14z"/>
<path d="M2270 1730 c0 -7 -7 -10 -16 -6 -11 4 -15 2 -11 -8 4 -9 0 -12 -13
-9 -10 3 -20 0 -24 -5 -6 -10 31 -93 46 -103 6 -4 6 -9 -1 -13 -6 -4 -11 -12
-11 -17 0 -6 4 -8 9 -5 17 11 33 -22 26 -54 -7 -30 7 -43 19 -17 3 6 3 -2 0
-20 -5 -27 -3 -31 14 -26 25 6 72 -40 72 -71 0 -17 7 -26 26 -30 23 -6 25 -10
19 -50 -6 -40 -5 -43 16 -42 28 1 39 -33 15 -46 -9 -5 -16 -17 -16 -26 0 -9
-7 -25 -15 -36 -8 -11 -12 -30 -9 -46 5 -20 -1 -34 -20 -55 -20 -21 -23 -31
-15 -41 6 -7 8 -17 6 -21 -7 -11 14 -38 36 -46 9 -3 17 -15 17 -25 0 -22 -23
-46 -33 -35 -4 3 -7 1 -7 -5 0 -7 -5 -12 -11 -12 -6 0 -8 9 -4 21 6 17 3 20
-11 17 -22 -4 -30 -32 -14 -50 40 -48 50 -62 45 -66 -3 -3 -11 0 -17 6 -17 17
-28 15 -28 -7 0 -14 -5 -18 -20 -14 -17 5 -20 0 -20 -31 0 -29 4 -37 24 -42
13 -3 34 0 46 6 12 6 24 9 27 7 2 -3 -5 -8 -16 -12 -28 -8 -28 -53 -1 -105 23
-46 12 -53 -19 -12 -20 26 -20 27 -21 4 0 -13 11 -34 25 -48 14 -14 22 -30 19
-36 -5 -7 -14 -2 -26 13 -10 13 -27 35 -38 47 -11 13 -20 28 -20 33 0 5 -4 9
-10 9 -19 0 -10 -30 19 -57 23 -23 27 -34 24 -60 -3 -18 -8 -33 -12 -33 -3 -1
-17 -10 -30 -21 -21 -17 -22 -22 -11 -29 12 -7 12 -12 2 -22 -24 -24 -12 -29
18 -8 22 15 29 27 25 40 -4 12 2 24 17 34 34 24 45 19 19 -8 -13 -14 -20 -29
-17 -35 4 -5 -11 -27 -31 -48 -34 -34 -38 -42 -36 -86 l1 -48 -29 38 c-34 45
-37 68 -9 60 24 -6 27 11 3 20 -9 4 -19 1 -21 -5 -2 -7 -11 -12 -19 -12 -14 0
-14 -3 2 -20 10 -11 14 -20 10 -20 -4 0 -1 -8 7 -17 19 -22 33 -63 21 -63 -5
0 -16 12 -25 28 -9 15 -26 38 -37 51 -17 19 -21 21 -21 8 0 -10 4 -17 8 -17 5
0 14 -11 20 -24 8 -19 7 -27 -11 -45 l-22 -22 28 12 c15 7 30 9 34 5 7 -7 -56
-76 -70 -76 -5 0 -27 -12 -48 -27 -30 -21 -39 -33 -36 -50 5 -25 -3 -29 -21
-11 -15 15 -26 4 -19 -17 9 -23 72 -20 97 5 11 11 20 25 20 30 0 14 -17 12
-23 -2 -3 -9 -8 -10 -15 -3 -8 7 1 17 28 33 l40 23 0 -36 c0 -22 4 -34 10 -30
6 3 10 21 10 40 0 19 5 37 10 40 17 11 23 -24 10 -56 -10 -22 -10 -33 -2 -41
8 -8 13 -7 18 5 9 24 27 21 19 -3 -6 -18 0 -19 135 -19 90 -1 139 3 135 9 -3
6 -1 10 4 10 6 0 11 -4 11 -10 0 -15 197 -13 203 3 4 9 6 9 6 -1 1 -10 40 -12
170 -11 l170 0 -11 27 c-7 15 -27 43 -45 62 -18 20 -33 39 -33 43 0 6 -60 98
-71 107 -14 12 -99 151 -132 216 -20 40 -55 103 -78 140 -90 146 -135 250
-163 374 -21 95 -20 128 2 153 9 11 11 17 5 13 -8 -4 -13 -1 -13 8 0 9 -5 16
-11 16 -6 0 -9 6 -6 13 2 6 -3 17 -11 23 -8 6 -16 20 -17 30 -2 21 -7 35 -36
110 -22 56 -18 100 10 121 14 11 13 12 -6 13 -12 0 -29 -10 -38 -22 -16 -22
-16 -23 -30 -4 -17 23 -6 41 31 50 21 6 23 10 18 34 -13 50 -38 78 -66 73 -5
0 -8 6 -8 14 0 9 -9 15 -21 15 -21 0 -21 0 2 19 l23 18 -22 12 c-18 9 -22 9
-22 -3 0 -20 -23 -26 -42 -12 -10 8 -15 21 -12 32 3 12 -1 26 -10 33 -12 10
-16 11 -16 1z m20 -29 c0 -5 -7 -11 -14 -14 -10 -4 -13 -1 -9 9 6 15 23 19 23
5z m152 -177 c-5 -24 -8 -27 -20 -20 -14 8 -2 48 12 43 6 -2 9 -13 8 -23z
m-57 -14 c9 0 12 -6 9 -15 -9 -23 -31 -18 -36 10 -3 13 -2 27 1 31 3 3 7 -1 9
-10 2 -9 10 -16 17 -16z m100 -354 c0 -17 -7 -28 -23 -36 -31 -14 -36 -9 -20
21 31 57 41 60 43 15z m-5 -85 c19 -48 7 -56 -18 -12 -18 32 -20 41 -9 41 8 0
20 -13 27 -29z m-2 -96 c-3 -3 -9 2 -12 12 -6 14 -5 15 5 6 7 -7 10 -15 7 -18z
m-7 -127 c23 -28 25 -50 3 -41 -12 4 -14 0 -8 -21 4 -16 2 -26 -5 -26 -6 0
-11 4 -11 9 0 4 -12 20 -26 35 -26 25 -26 27 -9 46 23 26 33 25 56 -2z m-36
-98 c3 -5 1 -10 -4 -10 -6 0 -11 5 -11 10 0 6 2 10 4 10 3 0 8 -4 11 -10z m1
-118 c-3 -5 4 -23 14 -40 11 -18 16 -32 10 -32 -5 0 -17 14 -27 30 -9 17 -21
30 -26 30 -4 0 -5 5 -2 10 3 6 13 10 21 10 8 0 13 -4 10 -8z m54 -12 c0 -5 -4
-10 -10 -10 -5 0 -10 5 -10 10 0 6 5 10 10 10 6 0 10 -4 10 -10z m55 -71 c12
-19 -5 -23 -22 -6 -16 16 -16 17 -1 17 9 0 20 -5 23 -11z m-97 -45 c-10 -10
-28 6 -28 24 0 15 1 15 17 -1 9 -9 14 -19 11 -23z m39 -100 c-3 -3 -12 -4 -19
-1 -8 3 -5 6 6 6 11 1 17 -2 13 -5z m-37 -14 c0 -5 -4 -10 -10 -10 -5 0 -10 5
-10 10 0 6 5 10 10 10 6 0 10 -4 10 -10z m122 -30 c-2 -7 4 -20 13 -30 15 -16
14 -18 -7 -23 -26 -7 -42 11 -26 30 5 7 7 20 4 29 -4 10 -2 14 6 11 7 -2 12
-10 10 -17z m-186 -25 c4 -8 10 -12 15 -9 5 3 9 0 9 -5 0 -14 -27 -14 -35 -1
-5 8 -11 8 -19 1 -17 -14 -29 -1 -15 16 15 17 38 17 45 -2z m137 -25 c-3 -11
-7 -20 -9 -20 -2 0 -4 9 -4 20 0 11 4 20 9 20 5 0 7 -9 4 -20z m-43 -9 c0 -11
-4 -23 -10 -26 -6 -4 -10 5 -10 19 0 14 5 26 10 26 6 0 10 -9 10 -19z m157 13
c-3 -3 -12 -4 -19 -1 -8 3 -5 6 6 6 11 1 17 -2 13 -5z m-211 -71 c-10 -10 -19
5 -10 18 6 11 8 11 12 0 2 -7 1 -15 -2 -18z m174 -17 c0 -3 -4 -8 -10 -11 -5
-3 -10 -1 -10 4 0 6 5 11 10 11 6 0 10 -2 10 -4z m-180 -20 c-6 -8 -18 -12
-26 -9 -23 9 -16 23 12 23 22 0 24 -2 14 -14z m-66 -22 c26 -10 18 -24 -14
-24 -29 0 -38 9 -23 23 8 9 17 9 37 1z m-74 -68 c0 -24 -16 -43 -26 -33 -8 7
7 57 17 57 5 0 9 -11 9 -24z m60 14 c0 -5 -4 -10 -10 -10 -5 0 -10 5 -10 10 0
6 5 10 10 10 6 0 10 -4 10 -10z m48 -42 c-5 -15 -48 -24 -48 -10 0 14 12 22
33 22 10 0 17 -5 15 -12z m-38 -53 c0 -14 -4 -25 -10 -25 -11 0 -14 33 -3 43
11 11 13 8 13 -18z m100 -5 c0 -12 -59 -10 -66 2 -3 4 11 8 30 8 20 0 36 -5
36 -10z m50 -4 c0 -3 -4 -8 -10 -11 -5 -3 -10 -1 -10 4 0 6 5 11 10 11 6 0 10
-2 10 -4z"/>
<path d="M2437 1710 c3 -11 9 -20 14 -20 5 0 9 9 9 20 0 11 -6 20 -14 20 -9 0
-12 -7 -9 -20z"/>
<path d="M3960 1706 c0 -7 7 -19 15 -26 12 -10 16 -9 21 3 3 9 3 21 -1 27 -9
15 -35 12 -35 -4z"/>
<path d="M3641 1691 c-6 -10 -26 -22 -46 -25 -19 -4 -35 -11 -35 -15 0 -8 -68
-20 -135 -24 -16 -1 -34 -8 -38 -14 -14 -23 -30 -14 -23 12 4 17 2 25 -6 26
-87 5 -136 5 -148 -1 -50 -24 -96 -32 -180 -34 -138 -4 -140 -4 -140 -23 0
-23 -51 -48 -61 -31 -6 9 -11 8 -23 -2 -15 -11 -15 -15 -1 -36 8 -13 15 -30
15 -38 0 -9 15 -23 33 -32 17 -9 43 -25 56 -35 13 -11 42 -24 65 -29 22 -6 50
-15 61 -20 11 -5 40 -11 65 -14 87 -9 95 -11 103 -21 4 -6 13 -3 21 8 12 15
27 18 99 16 68 -2 88 0 101 14 10 9 21 17 26 17 5 0 21 5 37 12 15 6 33 10 38
9 6 -2 7 1 3 4 -10 11 10 45 26 45 8 0 19 7 26 15 10 12 9 15 -6 16 -18 0 -18
1 1 8 11 5 23 7 27 5 4 -3 9 5 13 15 3 11 15 23 26 26 16 5 19 12 15 31 -4 14
-2 24 4 24 5 0 10 6 10 13 0 8 9 22 20 32 22 20 24 56 4 62 -7 2 -14 -8 -18
-22 -4 -14 -11 -25 -16 -25 -13 0 -13 7 0 31 7 12 7 19 1 19 -6 0 -15 -8 -20
-19z"/>
<path d="M4050 1693 c0 -5 5 -15 10 -23 8 -12 10 -11 10 8 0 12 -4 22 -10 22
-5 0 -10 -3 -10 -7z"/>
<path d="M3940 1625 c-7 -19 -19 -36 -27 -39 -15 -6 -18 -26 -3 -26 13 0 71
86 63 94 -12 12 -19 6 -33 -29z"/>
<path d="M3810 1575 c0 -28 21 -33 40 -10 15 18 5 35 -21 35 -14 0 -19 -7 -19
-25z"/>
<path d="M5216 1551 c-25 -40 -38 -710 -14 -754 19 -36 21 -188 3 -257 -10
-37 -17 -96 -16 -136 2 -60 -2 -79 -29 -131 -34 -70 -36 -83 -15 -83 26 0 16
-24 -25 -63 -22 -20 -40 -44 -40 -52 0 -8 -4 -15 -8 -15 -4 0 -13 -14 -19 -30
-9 -25 -9 -30 3 -30 8 0 17 6 20 14 3 8 20 14 40 14 26 0 34 -4 30 -14 -5 -12
45 -14 315 -14 312 0 321 1 326 20 7 26 23 26 23 0 0 -18 7 -20 75 -20 75 0
75 0 75 27 0 21 3 24 12 15 7 -7 18 -12 26 -12 8 0 20 -7 27 -16 8 -12 20 -15
38 -10 33 8 34 18 5 31 -18 8 -23 19 -24 47 0 35 -12 66 -15 40 -1 -7 -2 -16
-3 -21 0 -6 -7 -16 -14 -23 -11 -11 -12 -7 -7 25 7 37 -7 53 -19 22 -4 -11
-11 -13 -23 -7 -84 41 -104 62 -60 62 21 0 24 4 20 21 -6 20 -3 21 23 15 26
-7 27 -6 14 8 -16 16 -64 11 -54 -5 3 -5 -8 -9 -25 -9 -38 0 -44 11 -26 47 8
16 18 45 21 64 l7 34 -21 -25 -21 -25 -1 68 c0 38 -4 67 -10 67 -5 0 -10 -11
-10 -25 0 -22 -3 -25 -26 -19 -25 6 -26 5 -21 -17 8 -31 -8 -62 -19 -36 -9 23
-21 21 -27 -5 -5 -18 -8 -19 -21 -8 -9 7 -16 25 -16 41 0 34 27 64 44 50 8 -7
16 -4 24 10 7 10 19 19 27 19 8 0 15 5 15 10 0 9 -36 15 -67 11 -17 -2 -16 18
3 54 12 23 14 45 9 88 -9 88 -20 109 -53 106 -48 -4 -62 9 -62 56 0 40 -2 42
-30 43 -23 0 -30 -4 -30 -18 0 -10 -5 -22 -12 -26 -11 -7 -10 -3 2 41 2 6 0
26 -4 47 l-8 36 -29 -16 c-26 -15 -31 -15 -39 -2 -13 20 -13 53 0 45 5 -3 18
-1 29 5 13 7 22 7 26 0 11 -18 26 -10 23 12 -4 27 -50 35 -69 12 -15 -19 -29
-18 -29 2 0 8 -7 22 -16 31 -10 11 -13 25 -8 47 8 40 12 43 27 23 11 -15 15
-14 44 13 35 33 49 37 56 18 2 -7 8 -10 12 -6 4 4 4 15 0 25 -4 10 -8 31 -9
47 -1 40 -29 56 -54 32 -13 -11 -22 -14 -27 -6 -3 5 -11 8 -16 5 -5 -4 -9 3
-9 14 0 14 -6 21 -20 21 -14 0 -20 7 -20 23 0 13 -5 28 -11 34 -8 8 -6 20 6
43 9 18 13 39 9 48 -4 10 -6 20 -6 25 5 20 -26 3 -38 -20 l-13 -28 -9 34 c-6
23 -6 43 1 59 12 26 7 42 -13 42 -7 0 -32 18 -57 40 -44 40 -63 48 -73 31z
m469 -871 c3 -5 2 -10 -4 -10 -5 0 -13 5 -16 10 -3 6 -2 10 4 10 5 0 13 -4 16
-10z m-50 -50 c4 -6 10 -8 14 -5 12 7 6 -26 -11 -65 -14 -29 -18 -32 -23 -17
-4 9 -16 17 -26 17 -24 0 -24 1 2 44 22 37 33 44 44 26z m79 -117 c-9 -21 -16
-43 -15 -50 1 -6 -3 -14 -9 -18 -6 -4 -10 4 -10 19 0 19 -5 26 -20 26 -21 0
-24 8 -14 33 3 9 13 13 25 10 12 -4 19 0 19 10 0 8 7 20 15 27 9 7 15 20 14
29 -1 9 0 21 2 26 1 6 4 -9 6 -32 3 -25 -3 -56 -13 -80z m-87 -15 c-3 -8 -6
-5 -6 6 -1 11 2 17 5 13 3 -3 4 -12 1 -19z m193 -180 c0 -37 -13 -57 -25 -38
-13 21 -15 56 -3 78 15 29 28 11 28 -40z m-52 -35 c-3 -42 -28 -59 -28 -20 0
32 9 57 22 57 5 0 8 -17 6 -37z m-558 -8 c0 -14 -4 -25 -10 -25 -5 0 -9 11 -8
25 1 14 6 25 10 25 4 0 8 -11 8 -25z m-30 -65 c0 -5 -4 -10 -10 -10 -5 0 -10
5 -10 10 0 6 5 10 10 10 6 0 10 -4 10 -10z m490 -10 c0 -5 -4 -10 -10 -10 -5
0 -10 5 -10 10 0 6 5 10 10 10 6 0 10 -4 10 -10z m60 -11 c0 -6 -4 -7 -10 -4
-5 3 -10 11 -10 16 0 6 5 7 10 4 6 -3 10 -11 10 -16z m60 -39 c0 -5 -4 -10
-10 -10 -5 0 -10 5 -10 10 0 6 5 10 10 10 6 0 10 -4 10 -10z m54 -28 c-4 -14
1 -17 27 -17 18 0 34 -6 36 -12 3 -7 -2 -13 -10 -13 -9 0 -19 -9 -22 -20 -3
-11 -13 -20 -20 -20 -9 0 -12 6 -8 16 5 14 2 16 -20 10 -27 -6 -37 7 -15 20 8
5 6 11 -6 20 -22 16 -12 34 19 34 17 0 22 -4 19 -18z m-174 -13 c0 -6 -4 -7
-10 -4 -5 3 -10 11 -10 16 0 6 5 7 10 4 6 -3 10 -11 10 -16z m60 0 c0 -5 -4
-9 -10 -9 -5 0 -10 7 -10 16 0 8 5 12 10 9 6 -3 10 -10 10 -16z m-22 -31 c14
-14 16 -28 2 -28 -5 0 -14 9 -20 20 -12 22 -1 27 18 8z m42 2 c0 -5 7 -10 16
-10 13 0 14 -3 4 -14 -6 -8 -17 -13 -24 -10 -14 5 -19 44 -5 44 5 0 9 -4 9
-10z m194 -19 c3 -5 -1 -12 -10 -15 -22 -9 -24 -8 -24 9 0 16 25 21 34 6z"/>
<path d="M3742 1528 c-18 -18 -15 -36 8 -48 16 -9 22 -8 27 6 4 10 0 22 -10
29 -9 7 -14 15 -10 18 3 4 4 7 2 7 -3 0 -10 -5 -17 -12z"/>
<path d="M3934 1522 c-12 -9 -39 -71 -32 -77 8 -8 49 55 46 70 -2 8 -8 11 -14
7z"/>
<path d="M3977 1454 c-35 -19 -64 -84 -37 -84 6 0 17 18 26 39 11 27 23 41 37
43 12 2 17 6 12 10 -6 3 -23 0 -38 -8z"/>
<path d="M917 1283 c-10 -9 -9 -23 2 -23 5 0 11 7 15 15 5 15 -5 20 -17 8z"/>
<path d="M3 1099 c8 -155 8 -231 3 -316 -2 -41 0 -73 5 -73 5 0 9 -11 9 -25 0
-14 9 -34 19 -44 10 -10 22 -28 26 -40 3 -12 12 -21 19 -21 8 0 19 -7 26 -15
7 -8 21 -15 31 -15 10 0 23 -9 29 -20 10 -18 19 -21 68 -18 45 2 56 6 53 18
-2 8 -4 25 -5 36 -1 12 -7 28 -14 36 -6 8 -9 18 -5 22 4 3 8 42 9 85 1 44 7
88 13 99 5 10 11 61 12 111 1 78 -2 97 -18 119 -30 42 -35 62 -15 62 14 0 15
2 2 9 -8 6 -18 7 -23 4 -5 -3 -8 0 -5 8 7 21 -33 59 -62 59 -15 0 -30 3 -34 8
-4 4 -29 7 -54 8 -26 0 -58 4 -71 8 l-23 8 5 -113z"/>
<path d="M3867 1174 c-10 -11 -8 -54 2 -54 14 0 25 40 14 51 -5 5 -12 6 -16 3z"/>
<path d="M3774 1111 c9 -14 66 -32 66 -20 0 5 -9 9 -19 9 -11 0 -23 5 -26 10
-3 6 -11 10 -16 10 -6 0 -8 -4 -5 -9z"/>
<path d="M2577 1104 c-9 -10 4 -34 19 -34 8 0 14 3 14 6 0 10 -27 33 -33 28z"/>
<path d="M3360 1063 c0 -5 5 -15 10 -23 7 -12 12 -12 22 -2 10 10 10 15 -2 22
-18 12 -30 13 -30 3z"/>
<path d="M3296 1041 c5 -5 23 -13 39 -17 27 -7 29 -6 16 9 -7 10 -25 17 -39
17 -16 0 -22 -4 -16 -9z"/>
<path d="M5510 1030 c0 -13 7 -20 20 -20 11 0 20 4 20 10 0 5 -9 14 -20 20
-17 9 -20 8 -20 -10z"/>
<path d="M5676 1033 c-11 -11 -6 -23 9 -23 8 0 15 4 15 9 0 13 -16 22 -24 14z"/>
<path d="M2325 1000 c3 -5 8 -10 11 -10 2 0 4 5 4 10 0 6 -5 10 -11 10 -5 0
-7 -4 -4 -10z"/>
<path d="M2295 990 c3 -5 8 -10 11 -10 2 0 4 5 4 10 0 6 -5 10 -11 10 -5 0 -7
-4 -4 -10z"/>
<path d="M5607 972 c-9 -10 -17 -21 -17 -24 0 -8 52 -17 67 -11 20 8 15 33 -6
33 -11 0 -21 5 -23 11 -2 6 -11 2 -21 -9z"/>
<path d="M2340 949 c0 -5 5 -7 10 -4 6 3 10 8 10 11 0 2 -4 4 -10 4 -5 0 -10
-5 -10 -11z"/>
<path d="M5630 895 c0 -8 7 -15 15 -15 8 0 15 7 15 15 0 8 -7 15 -15 15 -8 0
-15 -7 -15 -15z"/>
<path d="M2296 891 c-4 -5 -2 -12 3 -15 5 -4 12 -2 15 3 4 5 2 12 -3 15 -5 4
-12 2 -15 -3z"/>
<path d="M5655 780 c-9 -14 13 -40 34 -40 15 0 51 32 51 45 0 10 -79 5 -85 -5z"/>
<path d="M5832 769 c2 -7 10 -15 17 -17 8 -3 12 1 9 9 -2 7 -10 15 -17 17 -8
3 -12 -1 -9 -9z"/>
<path d="M2290 740 c0 -5 5 -10 11 -10 5 0 7 5 4 10 -3 6 -8 10 -11 10 -2 0
-4 -4 -4 -10z"/>
<path d="M5826 724 c-9 -22 -8 -24 9 -24 8 0 15 6 15 14 0 22 -17 28 -24 10z"/>
<path d="M2272 708 c-7 -7 -12 -21 -12 -32 0 -20 1 -20 22 2 15 15 19 25 12
32 -7 7 -14 6 -22 -2z"/>
<path d="M5780 615 c0 -15 4 -24 10 -20 6 3 10 12 10 20 0 8 -4 17 -10 20 -6
4 -10 -5 -10 -20z"/>
<path d="M5819 613 c-1 -5 0 -16 1 -26 1 -10 -7 -28 -17 -39 -17 -20 -17 -20
1 -17 11 2 24 18 30 37 6 18 15 30 19 26 4 -4 7 -3 7 3 0 6 -7 14 -16 17 -20
8 -24 8 -25 -1z"/>
<path d="M2200 591 c0 -5 5 -13 10 -16 6 -3 10 -2 10 4 0 5 -4 13 -10 16 -5 3
-10 2 -10 -4z"/>
<path d="M1850 579 c0 -5 -4 -7 -10 -4 -6 3 -7 -1 -4 -10 4 -9 7 -15 8 -13 1
2 8 11 15 21 9 11 10 17 2 17 -6 0 -11 -5 -11 -11z"/>
<path d="M2280 536 c0 -16 28 -42 36 -33 3 3 3 15 -1 26 -7 23 -35 29 -35 7z"/>
<path d="M5760 534 c0 -8 5 -12 10 -9 6 4 8 11 5 16 -9 14 -15 11 -15 -7z"/>
<path d="M2240 513 c0 -12 7 -23 15 -26 23 -9 26 9 5 28 -19 17 -20 17 -20 -2z"/>
<path d="M1760 490 c0 -34 15 -40 25 -10 3 11 11 20 16 20 5 0 9 5 9 10 0 6
-11 10 -25 10 -21 0 -25 -5 -25 -30z"/>
<path d="M1685 460 c3 -5 10 -10 16 -10 5 0 9 5 9 10 0 6 -7 10 -16 10 -8 0
-12 -4 -9 -10z"/>
<path d="M463 431 c-15 -16 -27 -21 -42 -16 -15 5 -21 2 -21 -9 0 -20 54 -21
124 -2 54 14 72 34 31 34 -14 0 -25 -6 -25 -12 0 -6 -4 -5 -9 3 -7 11 -10 11
-16 0 -7 -10 -10 -8 -15 6 -6 17 -8 17 -27 -4z"/>
<path d="M2260 430 c0 -5 5 -10 10 -10 6 0 10 5 10 10 0 6 -4 10 -10 10 -5 0
-10 -4 -10 -10z"/>
<path d="M1997 403 c-13 -12 -7 -23 13 -23 11 0 20 7 20 15 0 15 -21 21 -33 8z"/>
<path d="M2253 388 c-13 -6 -23 -15 -23 -20 0 -13 9 -10 32 12 24 22 23 23 -9
8z"/>
<path d="M5916 359 c-22 -38 -13 -50 13 -18 22 27 25 35 13 43 -5 3 -16 -9
-26 -25z"/>
<path d="M4630 360 c0 -5 5 -10 10 -10 6 0 10 5 10 10 0 6 -4 10 -10 10 -5 0
-10 -4 -10 -10z"/>
<path d="M4520 340 c0 -5 5 -10 10 -10 6 0 10 5 10 10 0 6 -4 10 -10 10 -5 0
-10 -4 -10 -10z"/>
<path d="M1728 295 c-17 -22 -16 -23 5 -27 18 -4 23 0 22 18 0 33 -8 35 -27 9z"/>
<path d="M4556 305 c-3 -9 0 -15 9 -15 8 0 15 7 15 15 0 8 -4 15 -9 15 -5 0
-11 -7 -15 -15z"/>
<path d="M1630 274 c0 -14 4 -23 10 -19 6 3 10 15 10 26 0 10 -4 19 -10 19 -5
0 -10 -12 -10 -26z"/>
<path d="M2141 273 c7 -10 15 -20 16 -22 2 -2 3 3 3 11 0 9 -7 19 -16 22 -15
6 -15 4 -3 -11z"/>
<path d="M6780 280 c-9 -6 -6 -11 11 -20 22 -12 25 -11 32 16 3 10 -28 13 -43
4z"/>
<path d="M1480 236 c0 -8 5 -18 10 -21 6 -3 10 1 10 9 0 8 -4 18 -10 21 -5 3
-10 -1 -10 -9z"/>
<path d="M4610 224 c0 -8 5 -12 10 -9 6 4 8 11 5 16 -9 14 -15 11 -15 -7z"/>
<path d="M1437 223 c-4 -6 2 -18 13 -28 26 -23 25 -31 -2 -39 -17 -4 -31 3
-55 26 -34 33 -41 32 -22 -3 8 -15 7 -24 -3 -36 -11 -14 -10 -15 11 -8 20 6
22 5 13 -10 -11 -20 -5 -55 9 -55 6 0 14 -10 18 -22 7 -17 5 -26 -7 -35 -13
-11 24 -13 191 -13 198 0 207 1 207 19 0 11 -4 23 -10 26 -5 3 -10 -1 -10 -9
0 -20 -7 -20 -27 -1 -14 14 -18 14 -39 0 -24 -15 -24 -15 -18 9 6 27 -20 68
-28 44 -2 -6 -10 -8 -16 -4 -17 10 -15 26 3 26 9 0 15 9 15 23 1 20 3 19 30
-13 33 -39 39 -34 13 13 -31 55 -34 58 -48 44 -7 -7 -16 -24 -20 -37 -7 -22
-9 -22 -20 -7 -17 23 -28 21 -15 -2 19 -36 10 -46 -15 -18 -21 23 -28 26 -45
17 -21 -11 -40 -6 -40 11 0 6 5 7 11 3 7 -4 10 1 7 11 -4 23 -28 32 -28 11 0
-18 -30 -11 -30 8 -1 18 -37 60 -43 49z"/>
<path d="M1580 218 c0 -9 5 -20 11 -23 17 -11 18 -2 3 19 -12 17 -14 17 -14 4z"/>
<path d="M2080 214 c0 -14 3 -14 15 -4 8 7 15 14 15 16 0 2 -7 4 -15 4 -8 0
-15 -7 -15 -16z"/>
<path d="M2168 223 c7 -3 16 -2 19 1 4 3 -2 6 -13 5 -11 0 -14 -3 -6 -6z"/>
<path d="M1540 211 c0 -5 5 -13 10 -16 6 -3 10 -2 10 4 0 5 -4 13 -10 16 -5 3
-10 2 -10 -4z"/>
<path d="M870 195 c0 -8 5 -15 10 -15 6 0 10 7 10 15 0 8 -4 15 -10 15 -5 0
-10 -7 -10 -15z"/>
<path d="M1406 185 c4 -8 10 -15 15 -15 4 0 6 7 3 15 -4 8 -10 15 -15 15 -4 0
-6 -7 -3 -15z"/>
<path d="M2040 180 c-26 -19 -24 -35 3 -25 11 5 33 46 24 45 -1 0 -13 -9 -27
-20z"/>
<path d="M4641 186 c-9 -10 -9 -16 -1 -21 13 -8 42 14 34 26 -8 13 -20 11 -33
-5z"/>
<path d="M6380 181 c0 -20 17 -37 27 -28 7 8 -7 47 -18 47 -5 0 -9 -9 -9 -19z"/>
<path d="M1920 181 c0 -5 -9 -11 -20 -14 -11 -3 -20 -11 -20 -17 0 -7 7 -10
18 -5 14 5 15 4 5 -6 -16 -16 -17 -55 -2 -64 17 -11 21 2 7 24 -10 17 -10 23
3 33 19 15 32 58 18 58 -5 0 -9 -4 -9 -9z"/>
<path d="M1150 160 c0 -5 5 -10 10 -10 6 0 10 5 10 10 0 6 -4 10 -10 10 -5 0
-10 -4 -10 -10z"/>
<path d="M2065 151 c-35 -21 -62 -51 -47 -51 6 0 17 7 26 15 8 8 19 15 24 15
12 0 37 29 30 35 -2 2 -17 -4 -33 -14z"/>
<path d="M5960 156 c0 -9 5 -16 10 -16 6 0 10 4 10 9 0 6 -4 13 -10 16 -5 3
-10 -1 -10 -9z"/>
<path d="M2125 140 c-10 -11 -24 -20 -30 -20 -7 0 -18 -7 -25 -15 -9 -11 -9
-15 -1 -15 11 0 91 69 80 70 -3 0 -14 -9 -24 -20z"/>
<path d="M6050 145 c0 -8 7 -15 15 -15 8 0 15 4 15 9 0 5 -7 11 -15 15 -9 3
-15 0 -15 -9z"/>
<path d="M1807 95 c9 -25 19 -42 24 -40 4 3 5 13 2 21 -5 13 -1 15 15 9 28 -8
30 15 3 39 -13 12 -21 14 -26 6 -5 -8 -11 -8 -20 0 -9 8 -9 -1 2 -35z"/>
<path d="M1760 96 c0 -9 5 -16 10 -16 6 0 10 4 10 9 0 6 -4 13 -10 16 -5 3
-10 -1 -10 -9z"/>
<path d="M3250 100 c0 -5 5 -10 11 -10 5 0 7 5 4 10 -3 6 -8 10 -11 10 -2 0
-4 -4 -4 -10z"/>
<path d="M1228 77 c-29 -25 -26 -55 3 -34 14 10 36 57 27 57 -2 0 -15 -10 -30
-23z"/>
<path d="M6447 94 c-11 -11 3 -24 18 -18 8 4 12 10 9 15 -6 11 -18 12 -27 3z"/>
<path d="M6100 72 c0 -37 75 -39 98 -1 11 16 10 18 -8 16 -11 -2 -25 -8 -31
-14 -9 -9 -18 -8 -35 4 -23 14 -24 14 -24 -5z"/>
<path d="M6360 74 c0 -8 5 -12 10 -9 6 4 8 11 5 16 -9 14 -15 11 -15 -7z"/>
<path d="M6596 61 c-4 -7 -5 -15 -2 -18 9 -9 19 4 14 18 -4 11 -6 11 -12 0z"/>
<path d="M6945 60 c3 -5 13 -10 21 -10 8 0 12 5 9 10 -3 6 -13 10 -21 10 -8 0
-12 -4 -9 -10z"/>
<path d="M1860 50 c0 -18 20 -50 30 -50 18 0 10 39 -10 50 -14 8 -20 8 -20 0z"/>
<path d="M1911 30 c6 -16 15 -30 19 -30 5 0 4 14 -1 30 -6 17 -15 30 -19 30
-5 0 -4 -13 1 -30z"/>
<path d="M876 41 c-13 -21 6 -39 40 -39 l36 0 -23 24 c-23 25 -44 31 -53 15z"/>
<path d="M960 25 c7 -8 16 -15 21 -15 5 0 6 7 3 15 -4 8 -13 15 -21 15 -13 0
-13 -3 -3 -15z"/>
<path d="M1075 31 c-19 -8 -19 -8 4 -20 25 -14 49 -2 37 18 -8 12 -13 13 -41
2z"/>
<path d="M6745 19 c-4 -6 -5 -13 -2 -16 7 -7 27 6 27 18 0 12 -17 12 -25 -2z"/>
<path d="M1960 8 c0 -4 14 -8 32 -8 17 0 28 3 24 7 -10 11 -56 11 -56 1z"/>
</g>
</svg>
